<svg xmlns="http://www.w3.org/2000/svg" xmlns:xlink="http://www.w3.org/1999/xlink" viewBox="0 0 2530 824">
  <g style="line-height: 1.25">
    <path
      style="-inkscape-font-specification: &quot;Catamaran Medium&quot;"
      d="M944.37174 414.76038q26.6667 0 44.8001-11.73335 18.1334-12.00001 27.4667-32.80004 9.6-20.80002 9.6-47.20006 0-25.60003-8.5333-45.86672-8.5334-20.26669-26.4001-32.00004-17.6-11.73335-45.8667-11.73335h-65.3334v181.33356zm2.1334-159.46686q18.6667 0 30.4 8.80001 12 8.53334 17.6 23.73336 5.8667 15.20002 5.8667 35.46671 0 22.93336-7.2 38.66672-6.9333 15.46668-19.4667 23.46669-12.5333 8.00001-29.3334 8.00001h-38.6667v-138.1335zm145.796 122.13348q0-9.06668 6.1333-16.00002 6.1334-6.93334 17.8667-6.93334h31.4667V380.627q-6.6667 7.46668-15.4667 12.26669-8.5333 4.8-18.4 4.8-7.2 0-12-2.93333-4.8-3.20001-7.2-7.73335-2.4-4.8-2.4-9.60001zm-8-63.73341q7.2-3.2 16.5333-5.86667 9.3334-2.93334 20.8-2.93334 15.2001 0 20.5334 9.06668 5.3333 8.80001 5.3333 22.13336v1.33333h-30.6667q-21.0667 0-34.4 10.40001-13.0667 10.13335-13.0667 29.60004 0 17.60002 10.9334 29.0667 11.2 11.46668 34.1333 11.46668 10.4 0 20.8001-4.8 10.4-4.80001 17.0666-10.66668l3.2 12.26668h17.8667v-87.73344q0-12.53335-6.9333-22.6667-6.6667-10.40001-18.6667-16.26668-11.7333-6.13334-26.6667-6.13334-5.3333 0-13.8667 1.6-8.5333 1.33333-16.8 4-8.2667 2.40001-13.3333 5.86668zm165.3835 101.06679v-85.6001q6.4-6.13335 14.1333-11.20002 8-5.33334 16.2667-8.53334 8.5334-3.46667 15.4667-3.46667l-5.6-20.53336q-6.9333 0-15.2 3.46667-8 3.46667-15.4667 8.53334-7.4667 4.80001-12.5334 9.06668l-8.2666-21.06669h-14.4001v129.33349zm72.7708-108.2668h19.4667v108.2668h25.6001v-108.2668h32.2667l-8.2667-19.46669h-24v-14.40002q0-9.86668 4-16.00002 4.2666-6.4 13.8667-6.4 2.9333 0 6.4 1.06666 3.7333.8 6.4 1.86667l6.4-19.73336q-2.1334-1.6-5.8667-2.93333-3.7333-1.33334-7.7333-2.13334t-8-.8q-12.8001 0-22.1334 5.33334-9.0667 5.33334-14.1334 14.93335-4.8 9.33335-4.8 22.40003v16.80002h-19.7333zm225.517 108.2668V285.42689h-25.8667v129.33349zm-13.3334-152.53352q6.6667 0 11.4667-4.53334 4.8-4.8 4.8-11.46668 0-6.93334-4.8-11.46668t-11.4667-4.53334q-6.6667 0-11.2 4.80001-4.5333 4.53334-4.5333 11.20001 0 6.93334 4.5333 11.46668t11.2 4.53334zm157.8127 125.33349q-8.2667 4-16.5334 6.4-8 2.40001-19.7333 2.40001-12.2667 0-20.8001-5.86668-8.5333-6.13334-13.0666-16.80002-4.2667-10.66668-4.2667-24.00003.2666-12.80001 4.8-23.20002 4.8-10.40002 13.3333-16.53336 8.8-6.13334 20.8001-6.13334 11.4666 0 19.7333 2.66667t16.5334 6.13334l7.4666-18.13335q-5.6-4.00001-13.8666-6.66668-8.2667-2.93334-16.2667-4.26667-8-1.6-13.3334-1.6-20 0-34.6667 8.80001-14.6667 8.53334-22.6667 23.73336-7.7333 15.20002-8 35.46671 0 20.26669 7.7334 35.73338 7.7333 15.20002 22.1333 24.00003 14.6667 8.53334 34.4001 8.53334 5.6 0 13.6-1.6 8.2667-1.33334 16.5333-4.00001 8.2667-2.93333 13.8667-6.66667zm79.6917-64.00008q6.4-5.60001 13.3334-10.13335 6.9333-4.8 13.8667-7.46667 7.2-2.93334 13.6-2.93334 12.5333 0 16.8 8.00001 4.5333 7.73334 4.5333 20.80002v82.93344h25.6001v-85.33344q0-13.86668-4.2667-24.80003-4.2667-10.93334-13.6-17.06669-9.0667-6.4-23.7334-6.4-8.8 0-17.8667 2.93333-8.8 2.66667-16.8 7.46668t-14.6667 10.93335zm0 91.20011v-188.2669l-25.6 2.93334v185.33356zm304.6004-21.86669l11.2 21.86669h14.6667V226.76015l-25.8667 2.66667zm8-16.00002q-8.2667 9.86668-16.5334 14.66668-8 4.80001-19.7333 4.80001-12.2667 0-20.8-6.13334-8.5334-6.13334-13.0667-16.80002-4.2667-10.66668-4.2667-24.53337 0-12.80001 4.5333-22.93336 4.5334-10.13334 13.0667-16.00002 8.5334-6.13334 20.5334-6.13334 11.4667 0 20 4.53334 8.8 4.53334 17.0667 14.93335l7.4667-18.13335q-5.6-8.53335-14.1334-13.60002-8.2667-5.06667-16.5333-7.20001-8.2667-2.4-13.6001-2.4-19.4666 0-34.1333 8.53334-14.4 8.26668-22.4001 23.4667-8 14.93335-8 35.20004 0 20.80002 7.7334 36.26671 7.7333 15.46669 22.1333 24.2667 14.6667 8.53334 34.4001 8.53334 5.6 0 13.6-2.4 8.2667-2.40001 16.5333-7.46668 8.2667-5.33334 13.8667-13.06668zm92.2459.53333q0-9.06668 6.1333-16.00002 6.1333-6.93334 17.8667-6.93334h31.4667V380.627q-6.6667 7.46668-15.4667 12.26669-8.5333 4.8-18.4 4.8-7.2 0-12-2.93333-4.8-3.20001-7.2-7.73335-2.4-4.8-2.4-9.60001zm-8.0001-63.73341q7.2001-3.2 16.5334-5.86667 9.3333-2.93334 20.8-2.93334 15.2 0 20.5334 9.06668 5.3333 8.80001 5.3333 22.13336v1.33333h-30.6667q-21.0667 0-34.4 10.40001-13.0667 10.13335-13.0667 29.60004 0 17.60002 10.9333 29.0667 11.2001 11.46668 34.1334 11.46668 10.4 0 20.8-4.8 10.4001-4.80001 17.0667-10.66668l3.2 12.26668h17.8667v-87.73344q0-12.53335-6.9333-22.6667-6.6667-10.40001-18.6667-16.26668-11.7334-6.13334-26.6667-6.13334-5.3334 0-13.8667 1.6-8.5333 1.33333-16.8 4-8.2667 2.40001-13.3334 5.86668zm132.8501 92.80011q5.6 3.73334 13.3334 6.40001 8 2.66667 16 4.00001 8 1.33333 13.3334 1.33333 25.6 0 38.9333-10.13335 13.6001-10.40001 13.6001-28.53336 0-10.66668-6.6667-18.66669-6.4-8.00001-16.5334-13.60002-9.8666-5.86667-20.5333-9.60001-11.7334-4.00001-19.2001-8.26668-7.2-4.53334-7.4666-10.40001 0-6.93334 6.4-11.46668 6.6667-4.80001 16.8-4.80001 10.4 0 18.4 2.66667 8.2667 2.66667 15.7334 6.13334l8-17.33335q-5.3334-4.00001-13.0667-6.66668-7.7333-2.66667-15.4667-4-7.4667-1.6-13.0667-1.6-22.6667 0-36 10.13334-13.0667 9.86668-13.0667 27.4667 0 10.40002 6.4 17.86669 6.4 7.46668 16 12.53335 9.8667 5.06667 20.0001 8.53334 8.5333 2.66667 14.9333 6.13335 6.4 3.2 10.1334 7.2 3.7333 4.00001 3.7333 9.06668 0 4.80001-3.4667 8.53335-3.4666 3.73333-9.8667 5.86667-6.1333 2.13334-14.6666 2.13334-5.8667 0-11.7334-1.06667t-11.7333-2.93334q-5.6-2.13334-11.2-4.80001zm175.4336-178.66688q-15.2001 0-26.6667 4.26667-11.2001 4-22.6667 11.20001l3.2 22.6667q12-8.26668 22.9333-12.26668 10.9334-4.26668 22.4-4.26668 13.0667 0 20.5334 6.13335 7.4667 5.86667 7.4667 18.40002 0 13.06668-12.8 24.00003-12.8 10.93334-32.5334 17.33335l2.1333 49.60006 18.4001 7.46668 3.2-44.00006q13.8666-6.66667 24-15.46668 10.4-9.06668 16.2667-19.20002 5.8666-10.40002 5.8666-20.2667 0-13.33335-5.6-23.46669-5.6-10.40001-17.0666-16.26669-11.4667-5.86667-29.0667-5.86667zm-8.0001 154.93352q-6.6666 0-11.4666 4.80001-4.5334 4.53334-4.5334 11.20001 0 6.66667 4.5334 11.46668 4.8 4.53334 11.4666 4.53334 6.6667 0 11.4667-4.53334 4.8-4.80001 4.8-11.46668t-4.8-11.20001q-4.8-4.80001-11.4667-4.80001z"
      aria-label="Darf ich das?"
      font-weight="500"
      font-size="266.667"
      font-family="Catamaran"
      letter-spacing="20"
      fill="#3f3d56" />
  </g>
  <defs>
    <path id="a" d="M.000134.109364H429.54959V557.93956H.000134z" />
    <path id="c" d="M.14088.269925H423.8656V564.11972H.14088z" />
  </defs>
  <g fill="none" fill-rule="evenodd">
    <g transform="translate(120.230913 102.811765)">
      <mask id="b" fill="#fff"><use xlink:href="#a" width="100%" height="100%" /></mask>
      <path
        d="M429.35929 433.28057c-3.92349-58.31118-52.53064-76.39495-143.32886-92.06622-87.36983-14.64917-150.97838-31.30543-156.27551-110.02153-4.26118-63.30748 44.84679-100.06888 75.0127-112.96791l-.11447-1.66449c-31.95738-13.76125-74.88679-34.731467-79.34256-100.95394-.35486-5.2761-.33197-10.435144-.02576-15.497116-18.49847 13.361551-35.016608 28.598859-49.356934 45.346478-24.425203-12.068221-54.593977-2.946393-68.693915 21.415597C-6.940363 91.367616.382905 122.19055 23.368637 137.1709c-20.510302 59.27047-21.351662 125.01615.30621 186.58207-23.226122 14.90041-30.67817 45.89179-16.440866 70.49646 14.243027 24.60467 44.869684 33.66368 69.420804 21.04444 42.611745 49.49484 100.101835 81.6425 161.810165 93.55941 1.50816 27.34835 24.6055 49.08657 52.95705 49.08657 28.19701 0 51.19992-21.5041 52.93701-48.64119 24.35366-4.50524 48.42686-12.30804 71.63009-23.48264 9.97899-16.30223 14.58358-34.51163 13.37019-52.53545"
        fill="#3f3d56"
        mask="url(#b)" />
    </g>
    <path
      d="M281.547188 326.202525c3.40488 50.64487 38.96943 70.36271 107.89035 83.25656l83.30687 15.67695c23.68881-14.09759 60.99996-49.12527 57.39849-102.67845-2.17969-32.38119-23.55774-64.72254-88.35293-78.31074l-82.6145-17.81122c-32.8321 8.45457-81.16992 47.14467-77.62828 99.8669"
      fill="#3f3d56" />
    <g transform="translate(281.363088 -.269925)">
      <mask id="d" fill="#fff"><use xlink:href="#c" width="100%" height="100%" /></mask>
      <path
        d="M402.03781 425.26894c20.99093-60.31535 22.09259-127.43697.36816-190.23883 21.44406-15.48031 27.97753-45.67252 14.29037-69.76067-13.68432-24.08815-42.68137-33.43562-66.59494-22.30384-42.65872-50.516049-100.41211-83.111317-162.30874-94.792775C185.53271 21.347777 162.987.267047 135.4626.267047c-27.62919 0-50.231542 21.247649-52.341397 48.222349-26.688956 5.23205-53.02391 14.50757-78.192072 28.030894C1.120064 87.393054-.429051 98.861547.327098 110.33292c4.16307 62.97742 56.062669 82.21052 133.909232 98.40455 76.52118 15.02272 141.50471 31.25416 146.71846 110.18387 3.66181 55.41713-32.26237 95.82594-59.65933 114.56117l.11045 1.6807c30.549 10.14465 75.65175 33.21402 79.56277 92.41274.82695 12.55059-.14727 24.80475-2.77255 36.54377 19.26057-13.69312 36.38579-29.48137 51.23408-46.89275 24.04385 11.62965 53.45154 2.36277 67.26613-21.95562 13.76079-24.22053 7.07156-54.59981-14.65853-70.00241"
        fill="#3f3d56"
        mask="url(#d)" />
    </g>
    <path
      d="M830.999998 781.744925c0 21.08811-186.25862 23.33431-415.5 38.18342C186.472568 834.763575 0 802.833035 0 781.744925c0-21.08811 187.331588-63.5199 415.499998-38.18342 229.24138 25.45561 415.5 17.09529 415.5 38.18342z"
      fill="#ff6584"
      fill-rule="nonzero" />
  </g>
</svg>
