<svg xmlns="http://www.w3.org/2000/svg" viewBox="0 0 125.82 20.92">
  <g id="Ebene_2" data-name="Ebene 2">
    <g id="Ebene_1-2" data-name="Ebene 1">
      <path
        d="M6.43,20.92a8.15,8.15,0,0,1-2.65-.4,5.86,5.86,0,0,1-2-1.16A5.38,5.38,0,0,1,.46,17.54,5.92,5.92,0,0,1,0,15.15V11.34A5.92,5.92,0,0,1,.46,9,5.29,5.29,0,0,1,1.75,7.13,5.9,5.9,0,0,1,3.78,6a7.88,7.88,0,0,1,2.65-.42,7.74,7.74,0,0,1,2.4.37,5.86,5.86,0,0,1,1.94,1A6,6,0,0,1,12.16,8.6a6.27,6.27,0,0,1,.75,2.17H9.53a2.65,2.65,0,0,0-1-1.66,3.33,3.33,0,0,0-2.07-.63,3.16,3.16,0,0,0-2.24.75,2.76,2.76,0,0,0-.81,2.11v3.81a2.74,2.74,0,0,0,.79,2.08A3.16,3.16,0,0,0,6.43,18a3.36,3.36,0,0,0,2.06-.63,2.62,2.62,0,0,0,1-1.66h3.38a6.27,6.27,0,0,1-.75,2.17,5.85,5.85,0,0,1-1.4,1.65,6.17,6.17,0,0,1-1.94,1A7.63,7.63,0,0,1,6.43,20.92Z" />
      <path
        d="M22.46,20.92a7.77,7.77,0,0,1-2.66-.43,5.76,5.76,0,0,1-2-1.2,5.3,5.3,0,0,1-1.3-1.85A6,6,0,0,1,16,15V11.39A6,6,0,0,1,16.47,9a5.3,5.3,0,0,1,1.3-1.85A5.74,5.74,0,0,1,19.8,6a8.63,8.63,0,0,1,5.32,0,5.87,5.87,0,0,1,2,1.19A5.3,5.3,0,0,1,28.46,9a6.18,6.18,0,0,1,.46,2.4V15a6.32,6.32,0,0,1-.46,2.42,5.34,5.34,0,0,1-1.3,1.86,5.87,5.87,0,0,1-2,1.19A8.06,8.06,0,0,1,22.46,20.92ZM19.39,15a2.79,2.79,0,0,0,.82,2.13,3.14,3.14,0,0,0,2.25.78,3.15,3.15,0,0,0,2.26-.78A2.79,2.79,0,0,0,25.54,15V11.39a2.79,2.79,0,0,0-.82-2.13,3.15,3.15,0,0,0-2.26-.78,3.14,3.14,0,0,0-2.25.78,2.79,2.79,0,0,0-.82,2.13Z" />
      <path
        d="M36.31,5.8V8.37h.25a3.18,3.18,0,0,1,1.35-2.09,4.72,4.72,0,0,1,2.75-.75A4.81,4.81,0,0,1,44.41,7a5.88,5.88,0,0,1,1.35,4.1V12.2H42.23v-.78a3,3,0,0,0-.79-2.23,2.89,2.89,0,0,0-2.16-.79,2.61,2.61,0,0,0-2,.81,3.11,3.11,0,0,0-.75,2.21v9.23H33.13V5.8Z" />
      <path
        d="M54.86,20.92a7.77,7.77,0,0,1-2.66-.43,5.76,5.76,0,0,1-2-1.2,5.17,5.17,0,0,1-1.3-1.85,6,6,0,0,1-.46-2.4V11.39A6,6,0,0,1,48.87,9a5.17,5.17,0,0,1,1.3-1.85A5.74,5.74,0,0,1,52.2,6a8.63,8.63,0,0,1,5.32,0,5.87,5.87,0,0,1,2,1.19A5.3,5.3,0,0,1,60.86,9a6.18,6.18,0,0,1,.46,2.4V15a6.32,6.32,0,0,1-.46,2.42,5.34,5.34,0,0,1-1.3,1.86,5.87,5.87,0,0,1-2,1.19A8.06,8.06,0,0,1,54.86,20.92ZM51.79,15a2.79,2.79,0,0,0,.82,2.13,3.65,3.65,0,0,0,4.51,0A2.79,2.79,0,0,0,57.94,15V11.39a2.79,2.79,0,0,0-.82-2.13,3.65,3.65,0,0,0-4.51,0,2.79,2.79,0,0,0-.82,2.13Z" />
      <path
        d="M64.91,5.8h3.18V8.37h.25a3.25,3.25,0,0,1,1.29-2.11A5.11,5.11,0,0,1,75.87,7,5.79,5.79,0,0,1,77.17,11v9.69H73.79V11.37a3,3,0,0,0-.73-2.15,2.64,2.64,0,0,0-2-.77,2.67,2.67,0,0,0-2,.8,3.07,3.07,0,0,0-.74,2.17v9.23H64.91Z" />
      <path
        d="M81.4,17.58h5.32V8.86H82.08V5.8H90V17.58h4.3v3.07H81.4Zm4.35-15.8A1.69,1.69,0,0,1,86.28.5,1.94,1.94,0,0,1,87.67,0h.7a1.94,1.94,0,0,1,1.39.5,1.69,1.69,0,0,1,.53,1.28,1.7,1.7,0,0,1-.53,1.3,2,2,0,0,1-1.42.48h-.67a2,2,0,0,1-1.39-.48A1.7,1.7,0,0,1,85.75,1.78Z" />
      <path d="M97.52,1.21h3.38V11.66h2.37L107,5.8h3.78L106.16,13l4.67,7.61H107l-3.7-6.1H100.9v6.1H97.52Z" />
      <path
        d="M112.94,16.5a4.72,4.72,0,0,1,.4-2A4.34,4.34,0,0,1,114.5,13a5.48,5.48,0,0,1,1.83-.95,7.71,7.71,0,0,1,2.39-.34h3.72V10.45a2,2,0,0,0-.77-1.63,3.34,3.34,0,0,0-2.14-.61,4,4,0,0,0-1.87.4,1.9,1.9,0,0,0-1,1.11H113.4A4.42,4.42,0,0,1,114.07,8a4.74,4.74,0,0,1,1.33-1.31,6.59,6.59,0,0,1,1.86-.84,8.35,8.35,0,0,1,2.29-.3,9.52,9.52,0,0,1,2.6.34,6,6,0,0,1,2,1,4.41,4.41,0,0,1,1.25,1.54,4.5,4.5,0,0,1,.45,2V20.65h-3.19V17.74h-.24a3.41,3.41,0,0,1-1.51,2.32,5.47,5.47,0,0,1-3.16.86,5,5,0,0,1-3.49-1.2A4.18,4.18,0,0,1,112.94,16.5Zm3.37-.41A2,2,0,0,0,117,17.7a2.89,2.89,0,0,0,1.93.58,4.11,4.11,0,0,0,2.51-.74,2.25,2.25,0,0,0,1-1.88V13.93h-3.7a2.61,2.61,0,0,0-1.78.57A2,2,0,0,0,116.31,16.09Z" />
    </g>
  </g>
</svg>
