<svg xmlns="http://www.w3.org/2000/svg" xmlns:xlink="http://www.w3.org/1999/xlink" viewBox="0 0 590.24 204.81"><defs><style>.cls-1{fill:#93a9bd;}.cls-1,.cls-2,.cls-3,.cls-4{fill-rule:evenodd;}.cls-2{fill:#34c1ad;}.cls-3{fill:#fff;}.cls-4{fill:url(#Unbenannter_Verlauf);}.cls-5{fill:#002f33;}</style><linearGradient id="Unbenannter_Verlauf" x1="-336.76" y1="487.77" x2="-336.5" y2="487.77" gradientTransform="matrix(-0.81, -352.83, -207.93, 0.48, 101212.59, -118955.23)" gradientUnits="userSpaceOnUse"><stop offset="0" stop-color="#fff" stop-opacity="0.5"/><stop offset="0.2" stop-color="#fff" stop-opacity="0.33"/><stop offset="0.43" stop-color="#fff" stop-opacity="0.15"/><stop offset="1" stop-color="#fff" stop-opacity="0.07"/></linearGradient></defs><g id="Ebene_2" data-name="Ebene 2"><g id="Ebene_1-2" data-name="Ebene 1"><path class="cls-1" d="M38.1,133.31c4.15,1.24,5.79.67,5.16,3.26-6,25-18,69.14-22.26,68.22s4.48-46.42,9.53-71.66c.45-2.27,3.38-1.07,7.57.18Z"/><path class="cls-1" d="M86.57,132.87c-4.23.91-6.08.83-5.43,3.52,6.06,25,17.92,69.32,22.15,68.4s-4.14-46.08-9.19-71.32c-.59-2.93-3.3-1.52-7.53-.6Z"/><path class="cls-1" d="M81.84,151.71c.48-.28-.75-4.59-1.23-4.31L37.07,172.85c-1.52,1.63-2.47,4.86-1.16,5.32Z"/><path class="cls-1" d="M89.2,178.17c1-.93-.11-4.33-.59-4.61L43.42,147.39c-.48-.28-1.86,3.73-1.38,4L89.2,178.17Z"/><path class="cls-2" d="M62.15,1.35c14.41,0,30.65-3.46,37.23,2.95,21.74,21.17,2.33,75,8.45,80.9,11,10.61,16.46,9.57,16.46,18.4,0,15.09-27.84,27.35-62.14,27.35S0,118.69,0,103.6c0-8.83,4.53-7.7,16.14-18.4,6-5.55-12.66-58.64,6.14-80.72,6.56-7.71,23.81-3.13,39.87-3.13Z"/><path class="cls-3" d="M53.09,85.45a6.11,6.11,0,0,0-4.48.39l-14.32,9.5c-1,.66-.59,1.55.89,2l36,10.74a6.08,6.08,0,0,0,4.47-.39L90,98.17c1-.65.59-1.54-.89-2l-36-10.74Z"/><path class="cls-4" d="M24.84,76c.64,14.23,9.1,20.71,9.1,20.71L50.86,85.55,90.54,97.63c14.71-27.16,7.93-55.86,2-71.15C86.31,10.56,70,3.7,48.52,8.41,29.11,15.93,23.3,41.8,24.84,76Z"/><path class="cls-5" d="M181,86.27V36.5h13.91a21.62,21.62,0,0,1,11,2.79,19.32,19.32,0,0,1,7.57,8,25.13,25.13,0,0,1,2.72,11.83v4.58a25.12,25.12,0,0,1-2.7,11.82,19.25,19.25,0,0,1-7.61,8,22.37,22.37,0,0,1-11.26,2.8Zm4.2-46.21V82.71h9.43q7.86,0,12.62-5.21T212,63.39V59q0-8.59-4.69-13.75A15.92,15.92,0,0,0,195,40.06Z"/><path class="cls-5" d="M225.64,38.6a2.67,2.67,0,0,1,2.81-2.75,2.73,2.73,0,0,1,2.06.8,2.67,2.67,0,0,1,.77,2,2.63,2.63,0,0,1-.77,1.94,2.76,2.76,0,0,1-2.06.78,2.71,2.71,0,0,1-2-.78A2.66,2.66,0,0,1,225.64,38.6Zm4.82,47.67h-4.1v-37h4.1Z"/><path class="cls-5" d="M239.93,67.44q0-8.69,3.85-13.76a12.38,12.38,0,0,1,10.44-5.08,12.87,12.87,0,0,1,11.48,6l.21-5.33h3.83V85.52q0,7.14-4,11.31T254.9,101a16.44,16.44,0,0,1-7.36-1.73A14.26,14.26,0,0,1,242,94.68l2.29-2.46q4.33,5.32,10.32,5.33c3.42,0,6.08-1,8-3s2.9-4.81,3-8.39V81.48Q261.67,87,254.15,87a12.33,12.33,0,0,1-10.32-5.13q-3.9-5.11-3.9-13.84Zm4.14.71q0,7.08,2.83,11.16a9.17,9.17,0,0,0,8,4.09,10.94,10.94,0,0,0,10.7-6.77V59.44A11.69,11.69,0,0,0,261.46,54,11.15,11.15,0,0,0,255,52.16a9.28,9.28,0,0,0-8,4.05Q244.06,60.26,244.07,68.15Z"/><path class="cls-5" d="M280.16,38.6a2.73,2.73,0,0,1,.75-2,2.7,2.7,0,0,1,2-.8,2.74,2.74,0,0,1,2.07.8,2.71,2.71,0,0,1,.77,2,2.67,2.67,0,0,1-.77,1.94,2.77,2.77,0,0,1-2.07.78,2.63,2.63,0,0,1-2.8-2.72ZM285,86.27h-4.1v-37H285Z"/><path class="cls-5" d="M302.45,39.82v9.47h7.65v3.35h-7.65V77.31a7.71,7.71,0,0,0,1.11,4.58,4.28,4.28,0,0,0,3.71,1.51,26.92,26.92,0,0,0,3.31-.34l.17,3.32a13.48,13.48,0,0,1-4.37.57q-4.22,0-6.12-2.44t-1.92-7.2V52.64h-6.8V49.29h6.8V39.82Z"/><path class="cls-5" d="M341.92,86.27a19.2,19.2,0,0,1-.78-5.16,14.26,14.26,0,0,1-5.49,4.32A16.84,16.84,0,0,1,328.59,87,12.42,12.42,0,0,1,320,84a9.68,9.68,0,0,1-3.3-7.52,9.91,9.91,0,0,1,4.5-8.55q4.5-3.14,12.53-3.14h7.41V60.56a8.08,8.08,0,0,0-2.44-6.23q-2.45-2.28-7.13-2.28a11.13,11.13,0,0,0-7.07,2.19,6.5,6.5,0,0,0-2.81,5.27l-4.1,0c0-2.94,1.37-5.48,4.1-7.64a15.84,15.84,0,0,1,10.09-3.23q6.18,0,9.76,3.1a11.09,11.09,0,0,1,3.67,8.63v17.5a21.76,21.76,0,0,0,1.13,8v.41Zm-12.85-2.94a13.72,13.72,0,0,0,7.33-2,11.68,11.68,0,0,0,4.7-5.3V67.91h-7.31q-6.12.07-9.57,2.24a6.73,6.73,0,0,0-3.45,6,6.64,6.64,0,0,0,2.3,5.16A8.69,8.69,0,0,0,329.07,83.33Z"/><path class="cls-5" d="M360.65,86.27h-4.1V33.77h4.1Z"/><path class="cls-5" d="M386.08,87a16,16,0,0,1-8.52-2.32,15.76,15.76,0,0,1-5.93-6.48,20.09,20.09,0,0,1-2.12-9.31V67.37a21.89,21.89,0,0,1,2.06-9.61,16.45,16.45,0,0,1,5.76-6.71,14.21,14.21,0,0,1,8-2.45A13.33,13.33,0,0,1,396,53.2q4,4.59,3.95,12.56v2.29H373.57v.79a15.49,15.49,0,0,0,3.61,10.47,11.47,11.47,0,0,0,9.07,4.19,13.33,13.33,0,0,0,5.8-1.2,12.85,12.85,0,0,0,4.56-3.82l2.56,1.94Q394.67,87,386.08,87Zm-.75-34.86a10.23,10.23,0,0,0-7.77,3.38,15.67,15.67,0,0,0-3.85,9.09h22.18v-.44a13.49,13.49,0,0,0-3-8.68A9.43,9.43,0,0,0,385.33,52.09Z"/><path class="cls-5" d="M430.07,76.87A5.82,5.82,0,0,0,427.63,72a19,19,0,0,0-7.37-2.89,33.17,33.17,0,0,1-7.64-2.39,10.19,10.19,0,0,1-4-3.3,8.2,8.2,0,0,1-1.32-4.71,8.79,8.79,0,0,1,3.66-7.23,14.74,14.74,0,0,1,9.37-2.86q6.18,0,9.93,3.06a9.83,9.83,0,0,1,3.74,8h-4.1a6.64,6.64,0,0,0-2.72-5.4,12.29,12.29,0,0,0-13.33-.36,5.54,5.54,0,0,0-2.44,4.67,5,5,0,0,0,2,4.29q2,1.52,7.42,2.78a35.47,35.47,0,0,1,8.06,2.7,10.49,10.49,0,0,1,4,3.46,9.52,9.52,0,0,1-2.48,12.37q-3.78,2.8-9.86,2.8-6.46,0-10.48-3.13a9.61,9.61,0,0,1-4-7.91h4.11a7.1,7.1,0,0,0,3,5.59,12.39,12.39,0,0,0,7.37,2,11.64,11.64,0,0,0,6.9-1.88A5.65,5.65,0,0,0,430.07,76.87Z"/><path class="cls-5" d="M190.2,156.84l1.54,7.72,1.88-7.38,10.8-36.68h3.79l10.67,36.68,1.84,7.45,1.64-7.79,9-36.34h4.31l-12.75,49.77h-4L207.6,131.34l-1.27-4.92-1.23,4.92-11.55,38.93h-4L176.8,120.5h4.31Z"/><path class="cls-5" d="M265,170.27a19.54,19.54,0,0,1-.79-5.16,14.16,14.16,0,0,1-5.48,4.32,16.88,16.88,0,0,1-7.06,1.52,12.4,12.4,0,0,1-8.63-3,9.68,9.68,0,0,1-3.3-7.52,9.92,9.92,0,0,1,4.49-8.55q4.5-3.14,12.53-3.14h7.42v-4.21a8.08,8.08,0,0,0-2.45-6.23c-1.62-1.52-4-2.28-7.12-2.28a11.16,11.16,0,0,0-7.08,2.19,6.49,6.49,0,0,0-2.8,5.27l-4.1,0q0-4.41,4.1-7.64a15.81,15.81,0,0,1,10.08-3.23q6.19,0,9.76,3.09a11.13,11.13,0,0,1,3.68,8.64v17.5a21.8,21.8,0,0,0,1.12,8v.41Zm-12.85-2.94a13.74,13.74,0,0,0,7.33-2,11.73,11.73,0,0,0,4.7-5.3v-8.14h-7.32q-6.1.08-9.57,2.24a6.73,6.73,0,0,0-3.45,6,6.62,6.62,0,0,0,2.31,5.16A8.69,8.69,0,0,0,252.17,167.33Z"/><path class="cls-5" d="M296.26,136.77a15.28,15.28,0,0,0-2.77-.24,10,10,0,0,0-6.48,2.14,11.7,11.7,0,0,0-3.77,6.2v25.4h-4.07v-37h4l.07,5.87a10.88,10.88,0,0,1,10.42-6.56,6.65,6.65,0,0,1,2.7.45Z"/><path class="cls-5" d="M310.79,123.82v9.47h7.65v3.35h-7.65v24.67a7.71,7.71,0,0,0,1.11,4.58,4.28,4.28,0,0,0,3.71,1.51,26.92,26.92,0,0,0,3.31-.34l.17,3.32a13.48,13.48,0,0,1-4.37.57q-4.22,0-6.12-2.44t-1.92-7.2V136.64h-6.8v-3.35h6.8v-9.47Z"/><path class="cls-5" d="M341.24,171a16.06,16.06,0,0,1-8.53-2.32,15.83,15.83,0,0,1-5.93-6.48,20.22,20.22,0,0,1-2.12-9.31v-1.47a21.76,21.76,0,0,1,2.07-9.61,16.45,16.45,0,0,1,5.76-6.71,14.21,14.21,0,0,1,8-2.45,13.33,13.33,0,0,1,10.68,4.6q3.94,4.59,3.95,12.56v2.29H328.73v.79a15.44,15.44,0,0,0,3.61,10.47,11.46,11.46,0,0,0,9.07,4.19,13.25,13.25,0,0,0,5.79-1.2,12.79,12.79,0,0,0,4.57-3.82l2.56,1.94Q349.82,171,341.24,171Zm-.75-34.86a10.25,10.25,0,0,0-7.78,3.38,15.6,15.6,0,0,0-3.84,9.09h22.18v-.44a13.55,13.55,0,0,0-3-8.68A9.41,9.41,0,0,0,340.49,136.09Z"/><path class="cls-5" d="M365.78,166.82h24v3.45H360.72v-3l22.42-30.42H361.41v-3.55h26.9v3.07Z"/><path class="cls-5" d="M396.88,122.6a2.67,2.67,0,0,1,2.81-2.75,2.73,2.73,0,0,1,2.06.8,2.67,2.67,0,0,1,.77,1.95,2.63,2.63,0,0,1-.77,1.94,2.76,2.76,0,0,1-2.06.78,2.71,2.71,0,0,1-2.05-.78A2.66,2.66,0,0,1,396.88,122.6Zm4.82,47.67h-4.1v-37h4.1Z"/><path class="cls-5" d="M416.54,133.29l.13,6a13.68,13.68,0,0,1,5.13-5,14,14,0,0,1,6.84-1.68q8.75,0,11.11,7.18a13.94,13.94,0,0,1,5.29-5.32,14.7,14.7,0,0,1,7.32-1.86q11.89,0,12.13,13v24.68h-4.1V145.9q0-5-2.14-7.35c-1.4-1.6-3.68-2.39-6.85-2.39A10.85,10.85,0,0,0,444,139a10,10,0,0,0-3.38,6.79v24.47h-4.11V145.59c0-3.17-.77-5.53-2.23-7.09s-3.74-2.34-6.79-2.34a10.33,10.33,0,0,0-6.63,2.2,12.9,12.9,0,0,0-4.1,6.55v25.36h-4.1v-37Z"/><path class="cls-5" d="M478.57,133.29l.14,6a13.68,13.68,0,0,1,5.13-5,14,14,0,0,1,6.83-1.68q8.76,0,11.11,7.18a14,14,0,0,1,5.3-5.32,14.69,14.69,0,0,1,7.31-1.86q11.9,0,12.14,13v24.68h-4.1V145.9q0-5-2.14-7.35c-1.4-1.6-3.69-2.39-6.85-2.39A10.83,10.83,0,0,0,506,139a10.1,10.1,0,0,0-3.39,6.79v24.47h-4.1V145.59q0-4.76-2.24-7.09t-6.78-2.34a10.29,10.29,0,0,0-6.63,2.2,12.91,12.91,0,0,0-4.11,6.55v25.36h-4.1v-37Z"/><path class="cls-5" d="M551.21,171a16,16,0,0,1-8.53-2.32,15.83,15.83,0,0,1-5.93-6.48,20.09,20.09,0,0,1-2.12-9.31v-1.47a21.76,21.76,0,0,1,2.07-9.61,16.3,16.3,0,0,1,5.76-6.71,14.18,14.18,0,0,1,8-2.45,13.33,13.33,0,0,1,10.68,4.6q4,4.59,4,12.56v2.29H538.7v.79a15.49,15.49,0,0,0,3.6,10.47,11.49,11.49,0,0,0,9.08,4.19,13.28,13.28,0,0,0,5.79-1.2,12.68,12.68,0,0,0,4.56-3.82l2.57,1.94Q559.79,171,551.21,171Zm-.76-34.86a10.23,10.23,0,0,0-7.77,3.38,15.67,15.67,0,0,0-3.85,9.09H561v-.44a13.56,13.56,0,0,0-3-8.68A9.4,9.4,0,0,0,550.45,136.09Z"/><path class="cls-5" d="M590.14,136.77a15.28,15.28,0,0,0-2.77-.24,10,10,0,0,0-6.48,2.14,11.71,11.71,0,0,0-3.78,6.2v25.4h-4.06v-37h4l.06,5.87a10.89,10.89,0,0,1,10.43-6.56,6.65,6.65,0,0,1,2.7.45Z"/></g></g></svg>